<svg height="512" viewBox="0 0 58 58" width="512" xmlns="http://www.w3.org/2000/svg"><g id="Page-1" fill="none" fill-rule="evenodd"><g id="070---Alert" fill-rule="nonzero"><path id="Shape" d="m.735 48.044 22.113-44.244c1.1652962-2.32874548 3.5459703-3.79956129 6.15-3.79956129s4.9847038 1.47081581 6.15 3.79956129l22.117 44.244c1.0657548 2.1322274.9518595 4.6641899-.3010316 6.6921176-1.2528911 2.0279278-3.4662264 3.2628175-5.8499684 3.2638824h-44.228c-2.38374198-.0010649-4.5970773-1.2359546-5.84996837-3.2638824-1.25289108-2.0279277-1.36678639-4.5598902-.30103163-6.6921176z" fill="#e57e25"/><path id="Shape" d="m18.725 21-14.412 28.833c-.44636877.8923284-.39890506 1.9521514.12544187 2.8010067.52434694.8488554 1.45081316 1.3657092 2.44855813 1.3659933h44.226c.998033-.0001107 1.9248137-.5170995 2.4492208-1.3662561.5244072-.8491566.5716234-1.9093314.1247792-2.8017439l-22.114-44.241c-.4869218-.97503287-1.4831459-1.59106926-2.573-1.59106926s-2.0860782.61603639-2.573 1.59106926l-2.704 5.409-1.5 3z" fill="#f0c419"/><g fill="#2c3e50"><path id="Shape" d="m31.381 35-.3 3.095c-.0489536.5129712-.4796983.9047541-.995.905h-2.177c-.5153017-.0002459-.9460464-.3920288-.995-.905l-1.81-19c-.0267741-.2805574.066083-.5593875.2557206-.7678747.1896376-.2084871.4584474-.3272726.7402794-.3271253h5.8c.2825276-.0012781.5524119.1170164.7429362.3256405.1905243.208624.2839071.4881071.2570638.7693595l-.948 9.905z"/><circle id="Oval" cx="29" cy="46" r="3"/></g></g></g></svg>